<?xml version="1.0" standalone="no"?>
<!DOCTYPE svg PUBLIC "-//W3C//DTD SVG 20010904//EN"
 "http://www.w3.org/TR/2001/REC-SVG-20010904/DTD/svg10.dtd">
<svg version="1.0" xmlns="http://www.w3.org/2000/svg"
 width="32.000000pt" height="32.000000pt" viewBox="0 0 32.000000 32.000000"
 preserveAspectRatio="xMidYMid meet">

<g transform="translate(0.000000,32.000000) scale(0.100000,-0.100000)"
fill="#000000" stroke="none">
<path d="M0 161 c0 -41 4 -71 10 -71 6 0 10 24 10 53 l0 52 22 -37 c12 -21 25
-38 30 -38 4 0 19 21 34 46 25 43 28 45 36 25 5 -15 2 -34 -12 -62 -36 -69 -6
-42 34 31 20 39 33 70 27 70 -5 0 -13 -9 -16 -20 -3 -11 -10 -20 -15 -20 -4 0
-10 9 -13 20 -8 31 -25 24 -47 -20 -11 -22 -24 -40 -28 -40 -4 0 -16 17 -27
37 -33 61 -45 54 -45 -26z"/>
<path d="M230 220 c0 -5 11 -10 25 -10 30 0 35 -33 8 -49 -16 -9 -16 -10 3
-11 34 0 44 38 18 64 -17 18 -54 22 -54 6z"/>
<path d="M207 130 c9 -22 20 -40 25 -40 4 0 1 16 -7 36 -8 20 -15 38 -15 40 0
2 -4 4 -9 4 -5 0 -2 -18 6 -40z"/>
<path d="M171 130 c-1 -18 16 -46 23 -40 2 3 -2 16 -9 30 -8 15 -14 19 -14 10z"/>
</g>
</svg>
